<?xml version="1.0" encoding="UTF-8"?>
<svg version="1.1" xmlns="http://www.w3.org/2000/svg" width="628" height="472">
<path d="M0 0 C207.24 0 414.48 0 628 0 C628 155.76 628 311.52 628 472 C420.76 472 213.52 472 0 472 C0 316.24 0 160.48 0 0 Z " fill="#FEFEFE" transform="translate(0,0)"/>
<path d="M0 0 C2.375 2.1875 2.375 2.1875 5 5 C5.825 5.804375 6.65 6.60875 7.5 7.4375 C10 10 10 10 12.5 13.0625 C14.84038392 15.81245111 17.15908348 17.7982897 20 20 C22.53939051 22.4155178 24.84311718 24.79899388 27 27.5625 C29.11878607 30.14477053 31.37202922 31.94890086 34 34 C37.24265463 36.94786785 39.16244314 38.70296915 40 43 C39.38253906 43.54527344 38.76507813 44.09054688 38.12890625 44.65234375 C27.36263803 53.09583012 27.36263803 53.09583012 20 64 C20.7425 64.20625 21.485 64.4125 22.25 64.625 C25.81436779 66.40718389 26.80313803 68.70470705 29 72 C30.55995002 73.22165122 30.55995002 73.22165122 32.3125 74.3125 C36.22389763 76.89217981 38.60966665 80.19134671 41.375 83.92578125 C43.31201113 86.39826421 45.47792172 88.14162653 48 90 C50.56058923 92.43568244 52.87856224 94.84544286 55.0625 97.625 C56.88606599 99.86033895 58.62495353 101.38836133 61 103 C60.43991823 106.58607913 59.29868576 107.93855609 56.5 110.1875 C48.22629197 116.73251434 48.22629197 116.73251434 42 125 C40.35 124.67 38.7 124.34 37 124 C37 123.34 37 122.68 37 122 C28.31075418 121.68323157 28.31075418 121.68323157 20 124 C20 124.66 20 125.32 20 126 C19.01 126.495 19.01 126.495 18 127 C17.30662208 130.0399648 17.30662208 130.0399648 16.875 133.5625 C16.70742187 134.76003906 16.53984375 135.95757812 16.3671875 137.19140625 C16.24601562 138.11824219 16.12484375 139.04507813 16 140 C16.66 140 17.32 140 18 140 C18.95955814 143.09873553 19.37134395 145.76347657 19 149 C16.74145333 152.56789232 13.80062748 155.23666193 10.6875 158.0625 C9.88892578 158.83271484 9.09035156 159.60292969 8.26757812 160.39648438 C2.36573869 166 2.36573869 166 0 166 C0 166.66 0 167.32 0 168 C-3.3632405 167.41599447 -4.99649528 166.37554061 -7.38818359 163.96826172 C-8.3497084 163.01123856 -8.3497084 163.01123856 -9.33065796 162.03488159 C-10.01302521 161.34016754 -10.69539246 160.64545349 -11.3984375 159.9296875 C-12.11101715 159.21523468 -12.8235968 158.50078186 -13.55776978 157.76467896 C-15.06579259 156.24993228 -16.57021247 154.73159143 -18.07128906 153.20996094 C-20.35240863 150.89789782 -22.64382273 148.59647399 -24.9375 146.296875 C-26.40426638 144.82092893 -27.87043147 143.34438502 -29.3359375 141.8671875 C-30.01425629 141.18461884 -30.69257507 140.50205017 -31.39144897 139.79879761 C-34.48849475 136.65578544 -37.54101849 133.47760461 -40.48681641 130.19189453 C-40.97598541 129.6472757 -41.46515442 129.10265686 -41.96914673 128.54153442 C-43 127 -43 127 -42.875 124.0625 C-42.58625 123.381875 -42.2975 122.70125 -42 122 C-40.515 121.505 -40.515 121.505 -39 121 C-38.505 119.515 -38.505 119.515 -38 118 C-37.34 118 -36.68 118 -36 118 C-36 117.34 -36 116.68 -36 116 C-34.625 114.375 -34.625 114.375 -33 113 C-32.34 113 -31.68 113 -31 113 C-30.505 111.515 -30.505 111.515 -30 110 C-29.34 110 -28.68 110 -28 110 C-27.505 108.515 -27.505 108.515 -27 107 C-26.34 106.67 -25.68 106.34 -25 106 C-26.38482811 102.87873985 -27.98454368 100.77470763 -30.40820312 98.38061523 C-31.102323 97.68987411 -31.79644287 96.999133 -32.51159668 96.28746033 C-33.26058228 95.55193436 -34.00956787 94.81640839 -34.78125 94.05859375 C-35.55053833 93.29450699 -36.31982666 92.53042023 -37.11242676 91.74317932 C-39.57025457 89.30315982 -42.03465993 86.86992723 -44.5 84.4375 C-46.9644676 82.00065019 -49.42746663 79.56236154 -51.88757324 77.12110901 C-53.41843858 75.60249853 -54.9519692 74.08656923 -56.48840332 72.57359314 C-57.52958313 71.5422097 -57.52958313 71.5422097 -58.59179688 70.48999023 C-59.20309448 69.88694565 -59.81439209 69.28390106 -60.44421387 68.6625824 C-63.33176057 65.57682131 -64 64.32759626 -64 60 C-59.77777778 56 -59.77777778 56 -57 56 C-56.34 54.35 -55.68 52.7 -55 51 C-54.34 51 -53.68 51 -53 51 C-52.67 50.01 -52.34 49.02 -52 48 C-51.34 48 -50.68 48 -50 48 C-50 47.34 -50 46.68 -50 46 C-47.8125 43.8125 -47.8125 43.8125 -45 42 C-42.22712751 42.19345622 -40.46914446 42.76542777 -38 44 C-33.09413049 44.41079745 -28.53294966 44.62569374 -23.9375 42.75 C-20.76646809 39.88584215 -20.04805033 37.84952987 -19.8046875 33.546875 C-19.82789063 32.29390625 -19.85109375 31.0409375 -19.875 29.75 C-19.89304688 28.48671875 -19.91109375 27.2234375 -19.9296875 25.921875 C-19.95289063 24.95765625 -19.97609375 23.9934375 -20 23 C-20.99 22.67 -21.98 22.34 -23 22 C-22.4409112 18.75728494 -21.5867822 17.06942576 -19 15 C-18.34 15 -17.68 15 -17 15 C-16.67 14.01 -16.34 13.02 -16 12 C-15.34 12 -14.68 12 -14 12 C-13.67 11.01 -13.34 10.02 -13 9 C-12.34 9 -11.68 9 -11 9 C-10.67 8.01 -10.34 7.02 -10 6 C-9.34 6 -8.68 6 -8 6 C-8 5.34 -8 4.68 -8 4 C-3.64705882 0 -3.64705882 0 0 0 Z " fill="#D62FB6" transform="translate(97,108)"/>
<path d="M0 0 C0 0.66 0 1.32 0 2 C0.88820498 2.1568661 0.88820498 2.1568661 1.79435349 2.31690121 C4.34439113 3.1066595 5.41778518 4.04746776 7.29034424 5.92958069 C7.9184903 6.55360275 8.54663635 7.17762482 9.19381714 7.82055664 C9.87139069 8.50891602 10.54896423 9.19727539 11.24707031 9.90649414 C11.96941864 10.62840439 12.69176697 11.35031464 13.43600464 12.09410095 C15.82389008 14.48407783 18.20097169 16.88450847 20.578125 19.28515625 C22.2308519 20.94347781 23.88424202 22.60113864 25.53826904 24.25816345 C29.89158576 28.62293905 34.23581874 32.99664864 38.57824707 37.37225342 C43.01027522 41.8349597 47.4507993 46.28919424 51.890625 50.74414062 C60.60210567 59.4878039 69.3040174 68.24092494 78 77 C75.3274934 77.75273657 73.46699866 77.9901296 70.625 77.9375 C66.97711699 78.00039453 64.37623613 78.68244444 61 80 C61 80.66 61 81.32 61 82 C60.01 82.495 60.01 82.495 59 83 C58.30662208 86.0399648 58.30662208 86.0399648 57.875 89.5625 C57.70742187 90.76003906 57.53984375 91.95757812 57.3671875 93.19140625 C57.18542969 94.58166016 57.18542969 94.58166016 57 96 C57.66 96 58.32 96 59 96 C59.95955814 99.09873553 60.37134395 101.76347657 60 105 C57.74145333 108.56789232 54.80062748 111.23666193 51.6875 114.0625 C50.88892578 114.83271484 50.09035156 115.60292969 49.26757812 116.39648438 C43.36573869 122 43.36573869 122 41 122 C41 122.66 41 123.32 41 124 C37.6367595 123.41599447 36.00350472 122.37554061 33.61181641 119.96826172 C32.97079987 119.33024628 32.32978333 118.69223083 31.66934204 118.03488159 C30.98697479 117.34016754 30.30460754 116.64545349 29.6015625 115.9296875 C28.88898285 115.21523468 28.1764032 114.50078186 27.44223022 113.76467896 C25.93420741 112.24993228 24.42978753 110.73159143 22.92871094 109.20996094 C20.64759137 106.89789782 18.35617727 104.59647399 16.0625 102.296875 C14.59573362 100.82092893 13.12956853 99.34438502 11.6640625 97.8671875 C10.98574371 97.18461884 10.30742493 96.50205017 9.60855103 95.79879761 C6.51150525 92.65578544 3.45898151 89.47760461 0.51318359 86.19189453 C0.02401459 85.6472757 -0.46515442 85.10265686 -0.96914673 84.54153442 C-2 83 -2 83 -1.875 80.0625 C-1.58625 79.381875 -1.2975 78.70125 -1 78 C0.485 77.505 0.485 77.505 2 77 C2.495 75.515 2.495 75.515 3 74 C3.66 74 4.32 74 5 74 C5 73.34 5 72.68 5 72 C6.375 70.375 6.375 70.375 8 69 C8.66 69 9.32 69 10 69 C10.495 67.515 10.495 67.515 11 66 C11.66 66 12.32 66 13 66 C13.495 64.515 13.495 64.515 14 63 C16.0625 62.3125 16.0625 62.3125 18 62 C15.38413687 56.83706287 11.43641557 53.23459648 7.33984375 49.25 C5.80912933 47.73970034 4.27853397 46.22928001 2.74804688 44.71875 C0.3386642 42.35291483 -2.07313239 39.98960417 -4.48754883 37.62890625 C-6.82235097 35.34237428 -9.1478799 33.04671814 -11.47265625 30.75 C-12.19663101 30.0477832 -12.92060577 29.34556641 -13.66651917 28.62207031 C-14.33739059 27.95788086 -15.00826202 27.29369141 -15.69946289 26.609375 C-16.2899794 26.03155273 -16.88049591 25.45373047 -17.48890686 24.85839844 C-19.24058255 22.70412264 -20.08951527 20.6090165 -21 18 C-18.07468808 14.98790339 -15.13283286 11.9925121 -12.1875 9 C-11.35412109 8.14148438 -10.52074219 7.28296875 -9.66210938 6.3984375 C-8.85966797 5.58632812 -8.05722656 4.77421875 -7.23046875 3.9375 C-6.49207764 3.18339844 -5.75368652 2.42929688 -4.99291992 1.65234375 C-3 0 -3 0 0 0 Z " fill="#A824B9" transform="translate(56,152)"/>
<path d="M0 0 C1.2375 0.0825 2.475 0.165 3.75 0.25 C11.07995698 1.94152853 18.21413489 5.79861424 22.4453125 12.1796875 C28.09798646 22.03149069 28.29746122 32.93041414 26 44 C25.01 44.66 24.02 45.32 23 46 C21.9935725 47.66279327 20.99414593 49.32983484 20 51 C14.15716513 57.64874313 7.3177825 60.78511173 -1.453125 61.44140625 C-11.8107261 61.84092902 -18.92198723 61.17544151 -27 54 C-27.969375 53.175 -28.93875 52.35 -29.9375 51.5 C-34.81888592 45.58316858 -36.6499938 41.30459542 -36.375 33.75 C-36.36210937 33.01144775 -36.34921875 32.27289551 -36.3359375 31.51196289 C-36.16990262 25.55481289 -35.40252312 19.79793041 -34 14 C-33.34 14 -32.68 14 -32 14 C-31.89300781 13.401875 -31.78601563 12.80375 -31.67578125 12.1875 C-30.44119783 8.19116061 -27.42578037 6.20144649 -24 4 C-16.05903382 0.26980551 -8.68007653 -0.61910298 0 0 Z " fill="#2B2A3D" transform="translate(412,172)"/>
<path d="M0 0 C0 0.66 0 1.32 0 2 C0.7425 2.2475 1.485 2.495 2.25 2.75 C5.23023087 4.10465039 6.89919252 5.5101541 9 8 C9 8.66 9 9.32 9 10 C9.66 10 10.32 10 11 10 C14 17 14 17 14 35 C-0.19 35 -14.38 35 -29 35 C-26.86160338 40.96919745 -26.86160338 40.96919745 -23 45 C-19.68022905 46.07404354 -16.53742195 46.16559003 -13.0625 46.1875 C-12.04285156 46.20167969 -11.02320313 46.21585938 -9.97265625 46.23046875 C-6.10520372 45.93062683 -3.11621037 45.20550719 -0.4375 42.3125 C1 41 1 41 2.8125 41 C6.09600212 42.50102954 8.42751295 44.48597856 11 47 C11 48.32 11 49.64 11 51 C10.01 51 9.02 51 8 51 C7.67 51.99 7.34 52.98 7 54 C4.9375 54.6875 4.9375 54.6875 3 55 C3 55.66 3 56.32 3 57 C-8.1458876 59.45736104 -22.11696413 61.59326499 -32.48046875 55.5546875 C-37.43096107 51.95286111 -40.43596518 48.53831521 -43 43 C-43.35449219 42.28328125 -43.70898438 41.5665625 -44.07421875 40.828125 C-45.33542476 36.97532689 -45.38298646 33.40648098 -45.375 29.375 C-45.37411377 28.579729 -45.37322754 27.78445801 -45.37231445 26.96508789 C-45.2453535 20.61252876 -44.43339947 14.50032891 -41 9 C-40.01 8.67 -39.02 8.34 -38 8 C-37.67 7.01 -37.34 6.02 -37 5 C-36.34 5 -35.68 5 -35 5 C-35 4.34 -35 3.68 -35 3 C-22.69528255 -2.55696917 -13.02544926 -3.22754495 0 0 Z " fill="#323142" transform="translate(301,174)"/>
<path d="M0 0 C4.95 0 9.9 0 15 0 C15.00410889 1.10923828 15.00821777 2.21847656 15.01245117 3.36132812 C15.03434786 7.50664705 15.08874514 11.65103093 15.15258789 15.79589844 C15.17567653 17.58421821 15.19014204 19.3726722 15.19555664 21.16113281 C15.2049137 23.74368038 15.24604721 26.32414358 15.29296875 28.90625 C15.2890361 29.69616333 15.28510345 30.48607666 15.28105164 31.29992676 C15.43454458 37.2400761 17.19802776 41.40483166 21 46 C23.43387753 47.21693876 25.41838846 47.31959896 28.125 47.5625 C29.03507812 47.64628906 29.94515625 47.73007813 30.8828125 47.81640625 C31.58148438 47.87699219 32.28015625 47.93757813 33 48 C33 47.34 33 46.68 33 46 C33.66 46 34.32 46 35 46 C35 45.34 35 44.68 35 44 C36.66666667 42.33333333 38.33333333 40.66666667 40 39 C42.49270156 35.33206076 42.34560092 31.45731936 42.4140625 27.171875 C42.43342865 26.42286926 42.4527948 25.67386353 42.4727478 24.90216064 C42.53235716 22.51822164 42.57885354 20.13423386 42.625 17.75 C42.66319701 16.13018769 42.70224975 14.51039532 42.7421875 12.890625 C42.83964904 8.92718918 42.91936277 4.96395655 43 1 C47.95 1 52.9 1 58 1 C58 20.8 58 40.6 58 61 C52.72 61 47.44 61 42 61 C42 59.02 42 57.04 42 55 C41.608125 55.474375 41.21625 55.94875 40.8125 56.4375 C38.59191626 58.35179633 36.86624291 58.61266988 34 59 C34 59.66 34 60.32 34 61 C27.27260061 63.24246646 18.57489793 63.24653975 11.86328125 60.90625 C6.43198087 57.85368058 3.36254189 54.7522759 1 49 C-0.19871939 43.67269252 -0.12845886 38.43634449 -0.09765625 33.0078125 C-0.0962413 32.06187225 -0.09482635 31.11593201 -0.09336853 30.1413269 C-0.08779484 27.13585171 -0.0752472 24.13045247 -0.0625 21.125 C-0.0574816 19.08073025 -0.05291929 17.03645932 -0.04882812 14.9921875 C-0.03783403 9.99476264 -0.02058757 4.99739417 0 0 Z " fill="#272639" transform="translate(449,172)"/>
<path d="M0 0 C1.72689291 1.62846597 3.36297326 3.28467167 5 5 C6.08333078 6.08870034 7.16951247 7.17456894 8.25805664 8.25805664 C31.87133789 31.87133789 31.87133789 31.87133789 33.5083313 33.5317688 C34.77953923 34.78300317 36.12645576 35.95654158 37.48608398 37.11108398 C39 39 39 39 38.97265625 41.50732422 C37.86008 44.35858011 36.65139375 45.78210461 34.4375 47.8828125 C33.72335938 48.57503906 33.00921875 49.26726562 32.2734375 49.98046875 C31.52320313 50.68816406 30.77296875 51.39585937 30 52.125 C28.51646856 53.53970781 27.03709394 54.95879128 25.5625 56.3828125 C24.90378906 57.00559082 24.24507812 57.62836914 23.56640625 58.27001953 C21.76925064 60.0216897 21.76925064 60.0216897 21 63 C17.6367595 62.41599447 16.00350472 61.37554061 13.61181641 58.96826172 C12.97079987 58.33024628 12.32978333 57.69223083 11.66934204 57.03488159 C10.98697479 56.34016754 10.30460754 55.64545349 9.6015625 54.9296875 C8.88898285 54.21523468 8.1764032 53.50078186 7.44223022 52.76467896 C5.93420741 51.24993228 4.42978753 49.73159143 2.92871094 48.20996094 C0.64759137 45.89789782 -1.64382273 43.59647399 -3.9375 41.296875 C-5.40426638 39.82092893 -6.87043147 38.34438502 -8.3359375 36.8671875 C-9.01425629 36.18461884 -9.69257507 35.50205017 -10.39144897 34.79879761 C-13.48849475 31.65578544 -16.54101849 28.47760461 -19.48681641 25.19189453 C-19.97598541 24.6472757 -20.46515442 24.10265686 -20.96914673 23.54153442 C-22 22 -22 22 -21.875 19.0625 C-21.441875 18.0415625 -21.441875 18.0415625 -21 17 C-20.01 16.67 -19.02 16.34 -18 16 C-17.67 15.01 -17.34 14.02 -17 13 C-16.34 13 -15.68 13 -15 13 C-15 12.34 -15 11.68 -15 11 C-13.625 9.375 -13.625 9.375 -12 8 C-11.34 8 -10.68 8 -10 8 C-9.67 7.01 -9.34 6.02 -9 5 C-8.34 5 -7.68 5 -7 5 C-6.67 4.01 -6.34 3.02 -6 2 C-3.85412616 0.684787 -2.52986895 0 0 0 Z " fill="#7B1CB7" transform="translate(76,213)"/>
<path d="M0 0 C2.375 2.1875 2.375 2.1875 5 5 C6.2375 6.2065625 6.2375 6.2065625 7.5 7.4375 C10 10 10 10 12.5 13.0625 C14.84038392 15.81245111 17.15908348 17.7982897 20 20 C22.53939051 22.4155178 24.84311718 24.79899388 27 27.5625 C29.11878607 30.14477053 31.37202922 31.94890086 34 34 C37.24265463 36.94786785 39.16244314 38.70296915 40 43 C39.39414063 43.53367188 38.78828125 44.06734375 38.1640625 44.6171875 C31.87883813 50.2062024 25.88976901 55.99744818 20 62 C18.33073165 60.56919855 16.66204681 59.13778881 14.99609375 57.703125 C13.74864911 56.6387691 12.4921708 55.58480777 11.22265625 54.546875 C7.462737 51.44344959 4.31527497 48.13426229 1.1640625 44.421875 C-3.19607209 39.54230199 -7.92089032 35.00205551 -12.57714844 30.40698242 C-14.05706956 28.94356694 -15.52953623 27.47291273 -17 26 C-17.33 28.64 -17.66 31.28 -18 34 C-18.33 34 -18.66 34 -19 34 C-19.33 30.37 -19.66 26.74 -20 23 C-20.99 22.67 -21.98 22.34 -23 22 C-22.4409112 18.75728494 -21.5867822 17.06942576 -19 15 C-18.34 15 -17.68 15 -17 15 C-16.67 14.01 -16.34 13.02 -16 12 C-15.34 12 -14.68 12 -14 12 C-13.67 11.01 -13.34 10.02 -13 9 C-12.34 9 -11.68 9 -11 9 C-10.67 8.01 -10.34 7.02 -10 6 C-9.34 6 -8.68 6 -8 6 C-8 5.34 -8 4.68 -8 4 C-3.64705882 0 -3.64705882 0 0 0 Z " fill="#EA37B7" transform="translate(97,108)"/>
<path d="M0 0 C7.16225298 -0.20398822 15.14281446 -0.08892319 21.34375 3.8046875 C23.21518772 7.10198252 23.12221528 9.38946526 22.65625 13.1171875 C21.15625 15.5546875 21.15625 15.5546875 19.65625 17.1171875 C17.21875 16.7421875 17.21875 16.7421875 14.65625 16.1171875 C14.16125 15.1271875 14.16125 15.1271875 13.65625 14.1171875 C9.57967562 12.91463587 5.56660258 13.01522159 1.34375 13.0546875 C0.08949219 13.06371094 -1.16476563 13.07273438 -2.45703125 13.08203125 C-3.40964844 13.09363281 -4.36226562 13.10523438 -5.34375 13.1171875 C-6.00375 15.0971875 -6.66375 17.0771875 -7.34375 19.1171875 C-6.35375 19.4471875 -5.36375 19.7771875 -4.34375 20.1171875 C-4.34375 20.7771875 -4.34375 21.4371875 -4.34375 22.1171875 C-3.065 22.1996875 -1.78625 22.2821875 -0.46875 22.3671875 C10.33454925 23.62220186 17.15885788 28.61979538 24.65625 36.1171875 C25.50407269 41.41420357 25.9032015 46.84745556 23.265625 51.6484375 C20.25444394 55.15711804 16.93865117 58.26533834 12.65625 60.1171875 C11.33625 60.1171875 10.01625 60.1171875 8.65625 60.1171875 C8.65625 60.7771875 8.65625 61.4371875 8.65625 62.1171875 C-9.20024203 62.67071825 -9.20024203 62.67071825 -17.34375 59.1171875 C-17.34375 58.4571875 -17.34375 57.7971875 -17.34375 57.1171875 C-18.99375 56.4571875 -20.64375 55.7971875 -22.34375 55.1171875 C-22.20279936 53.4917567 -22.05582913 51.86684699 -21.90625 50.2421875 C-21.82503906 49.33726562 -21.74382812 48.43234375 -21.66015625 47.5 C-21.34375 45.1171875 -21.34375 45.1171875 -20.34375 43.1171875 C-18.40625 43.4296875 -18.40625 43.4296875 -16.34375 44.1171875 C-16.01375 45.1071875 -15.68375 46.0971875 -15.34375 47.1171875 C-7.38639468 49.00568427 0.50140697 49.67066872 8.65625 50.1171875 C8.94403804 47.06663431 9.07771502 44.15930037 8.65625 41.1171875 C5.99827125 38.53975356 4.10850261 38.17926139 0.46875 37.6796875 C-7.41092084 36.51711311 -13.36432372 34.08766126 -18.28515625 27.703125 C-21.29527662 23.19349817 -20.72919733 18.37527089 -20.34375 13.1171875 C-19.48271948 8.85943109 -17.52735844 5.9513888 -14.15625 3.2421875 C-9.63045944 0.35439227 -5.19024776 0.25951239 0 0 Z " fill="#302F41" transform="translate(222.34375,171.8828125)"/>
<path d="M0 0 C4.95 0 9.9 0 15 0 C15 5.28 15 10.56 15 16 C20.61 16 26.22 16 32 16 C32 19.63 32 23.26 32 27 C26.39 27 20.78 27 15 27 C15.33 37.89 15.66 48.78 16 60 C20.62 60 25.24 60 30 60 C30.9681648 63.8726592 31.07622858 67.03611362 31 71 C24.56245729 74.59304709 18.27063807 74.84138202 11 74 C6.86203426 72.58126889 4.4564415 70.68466225 2 67 C2 66.01 2 65.02 2 64 C1.34 64 0.68 64 0 64 C-0.87782924 59.48631748 -1.1166438 55.22780021 -1.09765625 50.6328125 C-1.0962413 49.95322479 -1.09482635 49.27363708 -1.09336853 48.57345581 C-1.08781518 46.42392388 -1.07527169 44.27449992 -1.0625 42.125 C-1.05747896 40.65885568 -1.05291711 39.19270971 -1.04882812 37.7265625 C-1.03786111 34.15100717 -1.02062919 30.57551414 -1 27 C-3.64 27 -6.28 27 -9 27 C-9 23.37 -9 19.74 -9 16 C-6.03 16 -3.06 16 0 16 C0 10.72 0 5.44 0 0 Z " fill="#2F2E40" transform="translate(526,159)"/>
<path d="M0 0 C4.62 0 9.24 0 14 0 C14 28.05 14 56.1 14 85 C9.05 85 4.1 85 -1 85 C-1.02312297 74.06503529 -1.04091485 63.13007634 -1.05181217 52.1950922 C-1.0570411 47.11808982 -1.06413892 42.04110411 -1.07543945 36.96411133 C-1.08626799 32.06879448 -1.09227676 27.17349371 -1.09487724 22.27816582 C-1.09673155 20.40617049 -1.10035228 18.53417609 -1.10573006 16.66218758 C-1.11294004 14.04959301 -1.11399096 11.43706573 -1.11352539 8.82446289 C-1.11712067 8.04259613 -1.12071594 7.26072937 -1.12442017 6.45516968 C-1.11405216 1.11405216 -1.11405216 1.11405216 0 0 Z " fill="#302F41" transform="translate(351,149)"/>
<path d="M0 0 C4.62 0 9.24 0 14 0 C14 27.72 14 55.44 14 84 C9.38 84 4.76 84 0 84 C0 56.28 0 28.56 0 0 Z " fill="#29283A" transform="translate(326,149)"/>
<path d="M0 0 C4.59643165 2.39065446 8.33167196 4.99501588 10 10 C11.31598246 23.44395715 11.31598246 23.44395715 8.578125 28.76171875 C5.15663957 32.71689742 1.75521812 35.50970134 -3.48046875 36.44140625 C-10.42337029 36.75198338 -14.03376692 35.31119783 -19.3203125 30.82421875 C-23.27488165 26.52937272 -22.46081881 20.26735249 -22.3515625 14.75390625 C-21.78933052 8.75051815 -19.52271228 5.35158737 -15.21484375 1.3359375 C-10.6085589 -1.44245654 -5.1457149 -0.85861987 0 0 Z " fill="#F8F7F8" transform="translate(413,185)"/>
<path d="M0 0 C3.12433353 1.60234352 5.54154859 3.50701978 8 6 C8.33 6.33 8.66 6.66 9 7 C9 9.31 9 11.62 9 14 C-1.23 14 -11.46 14 -22 14 C-19.58058786 4.32235142 -19.58058786 4.32235142 -15.3203125 1.078125 C-10.37947469 -1.21761782 -5.2628101 -1.00336478 0 0 Z " fill="#EBEAEC" transform="translate(292,184)"/>
<path d="M0 0 C3.75 0.375 3.75 0.375 6.6875 2.5 C8.75 5.375 8.75 5.375 9.375 8.375 C8.51936783 12.48203441 7.13121991 13.92901113 3.75 16.375 C0.25844577 16.85659369 -2.01581435 17.07437187 -5.125 15.3125 C-6.8655744 12.31484409 -7.13121951 9.81963409 -7.25 6.375 C-4.44646018 0.5130531 -4.44646018 0.5130531 0 0 Z " fill="#8C8C96" transform="translate(571.25,217.625)"/>
<path d="M0 0 C2.3125 0.8125 2.3125 0.8125 4.3125 1.8125 C5.84918865 2.03717831 7.39218054 2.22046805 8.9375 2.375 C9.75476563 2.45878906 10.57203125 2.54257813 11.4140625 2.62890625 C12.04054687 2.68949219 12.66703125 2.75007812 13.3125 2.8125 C13.3125 3.1425 13.3125 3.4725 13.3125 3.8125 C9.3525 3.8125 5.3925 3.8125 1.3125 3.8125 C1.3125 3.1525 1.3125 2.4925 1.3125 1.8125 C-3.85737252 4.43257132 -7.50263644 8.4031805 -11.5 12.5 C-12.19287109 13.20189453 -12.88574219 13.90378906 -13.59960938 14.62695312 C-15.30021009 16.35101041 -16.99594661 18.07957278 -18.6875 19.8125 C-17.39715087 23.55137947 -15.96092388 25.90907707 -13.15576172 28.68481445 C-12.43516571 29.40518387 -11.7145697 30.12555328 -10.97213745 30.86775208 C-10.19500397 31.6294017 -9.41787048 32.39105133 -8.6171875 33.17578125 C-7.82095978 33.96776413 -7.02473206 34.75974701 -6.20437622 35.57572937 C-3.66404705 38.09928951 -1.11347705 40.61220836 1.4375 43.125 C3.16344612 44.83589709 4.88871485 46.5474778 6.61328125 48.25976562 C10.83853113 52.45196969 15.07223317 56.63548862 19.3125 60.8125 C18.9825 61.8025 18.6525 62.7925 18.3125 63.8125 C17.89297562 63.32151321 17.47345123 62.83052643 17.04121399 62.32466125 C12.84754125 57.46737883 8.48406797 52.86196125 3.91796875 48.35546875 C3.24453934 47.68582596 2.57110992 47.01618317 1.87727356 46.32624817 C-0.24603991 44.21501956 -2.37259717 42.10710733 -4.5 40 C-7.32188712 37.20470161 -10.14044361 34.40610572 -12.95703125 31.60546875 C-13.60283646 30.96796188 -14.24864166 30.33045502 -14.91401672 29.67362976 C-15.51191513 29.07903458 -16.10981354 28.48443939 -16.72583008 27.87182617 C-17.25098709 27.35190598 -17.7761441 26.83198578 -18.31721497 26.29631042 C-21.12057751 23.26069487 -21.6875 22.0358833 -21.6875 17.8125 C-17.46527778 13.8125 -17.46527778 13.8125 -14.6875 13.8125 C-14.0275 12.1625 -13.3675 10.5125 -12.6875 8.8125 C-12.0275 8.8125 -11.3675 8.8125 -10.6875 8.8125 C-10.3575 7.8225 -10.0275 6.8325 -9.6875 5.8125 C-9.0275 5.8125 -8.3675 5.8125 -7.6875 5.8125 C-7.6875 5.1525 -7.6875 4.4925 -7.6875 3.8125 C-3.62228261 -0.25271739 -3.62228261 -0.25271739 0 0 Z " fill="#C66CD1" transform="translate(54.6875,150.1875)"/>
<path d="M0 0 C4.95 0 9.9 0 15 0 C15 11.55 15 23.1 15 35 C14.67 35 14.34 35 14 35 C14 24.11 14 13.22 14 2 C10.04 2 6.08 2 2 2 C2.33 17.84 2.66 33.68 3 50 C3.66 50 4.32 50 5 50 C5.66 51.98 6.32 53.96 7 56 C4 55 4 55 2.375 52.3125 C-0.25686259 45.97210375 -0.13597349 39.76069278 -0.09765625 33.0078125 C-0.0962413 32.06187225 -0.09482635 31.11593201 -0.09336853 30.1413269 C-0.08779484 27.13585171 -0.0752472 24.13045247 -0.0625 21.125 C-0.0574816 19.08073025 -0.05291929 17.03645932 -0.04882812 14.9921875 C-0.03783403 9.99476264 -0.02058757 4.99739417 0 0 Z " fill="#5C5B69" transform="translate(449,172)"/>
<path d="M0 0 C0.33 0 0.66 0 1 0 C1 19.8 1 39.6 1 60 C-4.28 60 -9.56 60 -15 60 C-15 58.02 -15 56.04 -15 54 C-15.391875 54.474375 -15.78375 54.94875 -16.1875 55.4375 C-18.40808374 57.35179633 -20.13375709 57.61266988 -23 58 C-23 58.66 -23 59.32 -23 60 C-26.76300374 61.25433458 -30.27210909 61.10695422 -34.1875 61.0625 C-34.93708984 61.05798828 -35.68667969 61.05347656 -36.45898438 61.04882812 C-38.30602383 61.03706354 -40.15302213 61.01912865 -42 61 C-42 60.67 -42 60.34 -42 60 C-40.97519531 59.96261719 -39.95039063 59.92523438 -38.89453125 59.88671875 C-37.53381938 59.82102921 -36.17314389 59.75458291 -34.8125 59.6875 C-34.13896484 59.66494141 -33.46542969 59.64238281 -32.77148438 59.61914062 C-28.32840505 59.38073149 -25.67348172 58.4337632 -22 56 C-21.01 56 -20.02 56 -19 56 C-18.7525 55.38125 -18.505 54.7625 -18.25 54.125 C-17 52 -17 52 -13 50 C-13 52.97 -13 55.94 -13 59 C-8.71 59 -4.42 59 0 59 C0 39.53 0 20.06 0 0 Z " fill="#6F6F7A" transform="translate(506,173)"/>
<path d="M0 0 C0.69802734 0.00386719 1.39605469 0.00773438 2.11523438 0.01171875 C2.80939453 0.00785156 3.50355469 0.00398437 4.21875 0 C9.42445449 0.01007881 9.42445449 0.01007881 11.67773438 1.13671875 C11.67773438 6.41671875 11.67773438 11.69671875 11.67773438 17.13671875 C16.62773438 17.13671875 21.57773437 17.13671875 26.67773438 17.13671875 C26.67773438 17.46671875 26.67773438 17.79671875 26.67773438 18.13671875 C21.39773438 18.13671875 16.11773438 18.13671875 10.67773438 18.13671875 C10.67773438 12.85671875 10.67773438 7.57671875 10.67773438 2.13671875 C5.72773437 2.13671875 0.77773438 2.13671875 -4.32226562 2.13671875 C-4.32226562 7.41671875 -4.32226562 12.69671875 -4.32226562 18.13671875 C-7.29226563 18.13671875 -10.26226563 18.13671875 -13.32226562 18.13671875 C-13.32226562 17.80671875 -13.32226562 17.47671875 -13.32226562 17.13671875 C-11.01226563 17.13671875 -8.70226562 17.13671875 -6.32226562 17.13671875 C-6.33386719 15.99332031 -6.34546875 14.84992188 -6.35742188 13.671875 C-6.3667985 12.18099121 -6.37589884 10.69010566 -6.38476562 9.19921875 C-6.39314453 8.44447266 -6.40152344 7.68972656 -6.41015625 6.91210938 C-6.41879003 4.98677562 -6.37450895 3.06136294 -6.32226562 1.13671875 C-4.57602683 -0.60952005 -2.32348238 0.00450724 0 0 Z " fill="#C0C0C5" transform="translate(530.322265625,156.86328125)"/>
<path d="M0 0 C1.39935013 2.79870027 1.25265405 4.90498792 1 8 C-0.125 9.9375 -0.125 9.9375 -2 11 C-7.43478261 10.56521739 -7.43478261 10.56521739 -9 9 C-9.45818182 2.81454545 -9.45818182 2.81454545 -7.875 0 C-5.01598528 -1.52480785 -3.03270286 -0.8570682 0 0 Z " fill="#9E9EA6" transform="translate(576,221)"/>
<path d="M0 0 C0.66 0 1.32 0 2 0 C2 2.97 2 5.94 2 9 C1.67 9 1.34 9 1 9 C1 7.02 1 5.04 1 3 C0.608125 3.474375 0.21625 3.94875 -0.1875 4.4375 C-2.40808374 6.35179633 -4.13375709 6.61266988 -7 7 C-7 7.66 -7 8.32 -7 9 C-10.76300374 10.25433458 -14.27210909 10.10695422 -18.1875 10.0625 C-18.93708984 10.05798828 -19.68667969 10.05347656 -20.45898438 10.04882812 C-22.30602383 10.03706354 -24.15302213 10.01912865 -26 10 C-26 9.67 -26 9.34 -26 9 C-24.97519531 8.96261719 -23.95039063 8.92523438 -22.89453125 8.88671875 C-21.53381938 8.82102921 -20.17314389 8.75458291 -18.8125 8.6875 C-18.13896484 8.66494141 -17.46542969 8.64238281 -16.77148438 8.61914062 C-12.32840505 8.38073149 -9.67348172 7.4337632 -6 5 C-5.01 5 -4.02 5 -3 5 C-2.690625 4.360625 -2.38125 3.72125 -2.0625 3.0625 C-1 1 -1 1 0 0 Z " fill="#9D9CA5" transform="translate(490,224)"/>
<path d="M0 0 C0.66 0.33 1.32 0.66 2 1 C1.67 2.98 1.34 4.96 1 7 C1.61875 6.814375 2.2375 6.62875 2.875 6.4375 C5 6 5 6 7 7 C7.33 5.35 7.66 3.7 8 2 C8.33 2 8.66 2 9 2 C8.67 4.31 8.34 6.62 8 9 C5.1875 9.625 5.1875 9.625 2 10 C1.01 9.34 0.02 8.68 -1 8 C-1.25 4.4375 -1.25 4.4375 -1 1 C-0.67 0.67 -0.34 0.34 0 0 Z " fill="#CCCCD0" transform="translate(568,222)"/>
<path d="M0 0 C1.85625 0.2475 1.85625 0.2475 3.75 0.5 C11.85023226 1.39434741 19.97039462 1.45992825 28 0 C26.36587557 1.70840281 25.13093906 2.93453047 23 4 C20.42071924 3.93573706 17.88323648 3.81044537 15.3125 3.625 C14.61705078 3.58117187 13.92160156 3.53734375 13.20507812 3.4921875 C8.7626002 3.19353352 4.40002109 2.68047508 0 2 C0 1.34 0 0.68 0 0 Z " fill="#9C9CA4" transform="translate(272,231)"/>
<path d="M0 0 C1.74216797 0.05414063 1.74216797 0.05414063 3.51953125 0.109375 C4.39996094 0.15578125 5.28039062 0.2021875 6.1875 0.25 C6.1875 0.58 6.1875 0.91 6.1875 1.25 C2.8875 1.25 -0.4125 1.25 -3.8125 1.25 C-3.8125 1.91 -3.8125 2.57 -3.8125 3.25 C-6 4.6875 -6 4.6875 -8.8125 6.25 C-9.740625 6.806875 -10.66875 7.36375 -11.625 7.9375 C-12.346875 8.370625 -13.06875 8.80375 -13.8125 9.25 C-11.58669981 1.96556303 -7.41432926 -0.29956886 0 0 Z " fill="#B7B6BD" transform="translate(406.8125,184.75)"/>
<path d="M0 0 C0.66 0 1.32 0 2 0 C2.66 1.98 3.32 3.96 4 6 C8.53140653 6.93380961 8.53140653 6.93380961 13 6 C12.34 7.32 11.68 8.64 11 10 C4.63572149 10.36024218 4.63572149 10.36024218 2.125 8.9375 C0.46514955 6.07886867 0.30684971 3.25260697 0 0 Z " fill="#82818C" transform="translate(564,224)"/>
<path d="M0 0 C1.81332154 0.30769707 3.62564345 0.62129064 5.4375 0.9375 C6.95150391 1.19853516 6.95150391 1.19853516 8.49609375 1.46484375 C11 2 11 2 12 3 C14.01964199 3.07244053 16.04167124 3.08377188 18.0625 3.0625 C19.16722656 3.05347656 20.27195313 3.04445312 21.41015625 3.03515625 C22.26480469 3.02355469 23.11945313 3.01195312 24 3 C24 3.66 24 4.32 24 5 C15.43325085 5.33328851 8.04926924 5.11584616 0 2 C0 1.34 0 0.68 0 0 Z " fill="#A4A4AC" transform="translate(207,217)"/>
<path d="M0 0 C0.66796875 1.80078125 0.66796875 1.80078125 1 4 C-0.07421875 5.66796875 -0.07421875 5.66796875 -1.6875 7.1875 C-2.46673828 7.95126953 -2.46673828 7.95126953 -3.26171875 8.73046875 C-5.17103174 10.12491082 -6.69078704 10.5824299 -9 11 C-9 9 -9 9 -7.625 7.375 C-6 6 -6 6 -4 6 C-3.67 5.01 -3.34 4.02 -3 3 C-2.34 3 -1.68 3 -1 3 C-0.67 2.01 -0.34 1.02 0 0 Z " fill="#9C54C8" transform="translate(70,215)"/>
<path d="M0 0 C0.66 1.32 1.32 2.64 2 4 C2.33 4.33 2.66 4.66 3 5 C3.25 8.4375 3.25 8.4375 3 12 C2.01 12.66 1.02 13.32 0 14 C0 9.38 0 4.76 0 0 Z " fill="#666673" transform="translate(423,195)"/>
<path d="M0 0 C-1.49097658 3.7952131 -3.75700849 5.61042731 -7 8 C-6.67 6.35 -6.34 4.7 -6 3 C-5.34 3 -4.68 3 -4 3 C-4 2.34 -4 1.68 -4 1 C-2 0 -2 0 0 0 Z " fill="#EACBEE" transform="translate(121,231)"/>
<path d="M0 0 C0.66 0.33 1.32 0.66 2 1 C-1.61328125 5.6875 -1.61328125 5.6875 -3 7 C-3.99 7 -4.98 7 -6 7 C-6 7.99 -6 8.98 -6 10 C-6.66 10 -7.32 10 -8 10 C-7.44449305 6.40094092 -6.25112752 5.00090201 -3.4375 2.75 C-2.79683594 2.22921875 -2.15617187 1.7084375 -1.49609375 1.171875 C-1.00238281 0.78515625 -0.50867188 0.3984375 0 0 Z " fill="#6E6D7A" transform="translate(388,176)"/>
<path d="M0 0 C0.66 0 1.32 0 2 0 C2 2.97 2 5.94 2 9 C1.67 9 1.34 9 1 9 C1 7.02 1 5.04 1 3 C0.01 3.99 -0.98 4.98 -2 6 C-2.66 5.67 -3.32 5.34 -4 5 C-2.71937515 3.2925002 -1.38232443 1.62626404 0 0 Z " fill="#B6B6BC" transform="translate(490,224)"/>
<path d="M0 0 C0.66 0 1.32 0 2 0 C1.6875 1.9375 1.6875 1.9375 1 4 C0.01 4.33 -0.98 4.66 -2 5 C-2 5.66 -2 6.32 -2 7 C-2.66 7 -3.32 7 -4 7 C-2.92598892 4.08482708 -2.22189824 2.22189824 0 0 Z " fill="#575665" transform="translate(207,176)"/>
<path d="M0 0 C0.66 0 1.32 0 2 0 C2 0.99 2 1.98 2 3 C2.99 3 3.98 3 5 3 C4.67 3.99 4.34 4.98 4 6 C2.68 6 1.36 6 0 6 C0 4.02 0 2.04 0 0 Z " fill="#6D6D79" transform="translate(569,223)"/>
<path d="M0 0 C-3.83325617 2.70582788 -6.32538149 3.32613618 -11 3 C-9.68 2.67 -8.36 2.34 -7 2 C-7 1.34 -7 0.68 -7 0 C-2.25 -1.125 -2.25 -1.125 0 0 Z " fill="#C5C5CA" transform="translate(300,232)"/>
<path d="M0 0 C0 3.51716303 -0.82445585 4.37121748 -3 7 C-4.32 6.67 -5.64 6.34 -7 6 C-4.69 4.02 -2.38 2.04 0 0 Z " fill="#A9A9B0" transform="translate(244,224)"/>
<path d="M0 0 C0.33 0.66 0.66 1.32 1 2 C0.0625 4.625 0.0625 4.625 -1 7 C-2.32 6.67 -3.64 6.34 -5 6 C-3.35 4.02 -1.7 2.04 0 0 Z " fill="#666672" transform="translate(421,212)"/>
</svg>
